<?xml version="1.0"?>
<svg xmlns="http://www.w3.org/2000/svg" id="Capa_1" enable-background="new 0 0 508.022 508.022" height="512px" viewBox="0 0 508.022 508.022" width="512px"><g><path id="XMLID_994_" d="m497.213 356.512-228.202-125.362v-28.958c0-17.001-13.832-30.833-30.833-30.833-7.812 0-14.167-6.355-14.167-14.167s6.355-14.167 14.167-14.167h37.833v-30h-37.833c-24.354 0-44.167 19.813-44.167 44.167s19.813 44.167 44.167 44.167c.459 0 .833.374.833.833v28.958l-228.201 125.362c-8.397 4.613-12.484 13.775-10.169 22.799 2.37 9.236 10.957 15.687 20.883 15.687h464.975c9.926 0 18.513-6.451 20.883-15.687 2.315-9.025-1.772-18.187-10.169-22.799zm-439.543 8.485 196.341-107.859 196.341 107.859z" data-original="#000000" class="active-path" data-old_color="#000000" fill="#5E6363"/></g> </svg>
